<?xml version="1.0" encoding="utf-8"?>
<svg viewBox="0 0 300 300" width="300" height="300" xmlns="http://www.w3.org/2000/svg">
  <g transform="matrix(1.251669, 0, 0, 1.188395, -47.335209, -28.979248)" style="">
    <path d="M 139.5 69 C 139.5 69 192.42 68.552 215.5 69 C 217.433 69.185 218 71.5 218 71.5 L 218 127.5 C 218 127.5 217.635 129.093 217.105 129.668 C 216.444 130.385 214.5 131 214.5 131 L 169.5 131 L 157 143.5 L 152.5 149 L 152 131 L 139.5 131 L 137 128.5 L 136 125.5 L 136 74.5 C 136 74.5 136.409 71.793 137.174 70.717 C 137.732 69.932 139.5 69 139.5 69 Z M 144 75 L 142 77 L 142 124 L 144 125 L 158 125 L 159 133 L 167 125 L 212 125 L 212 75 L 144 75 Z" style="fill: rgb(0, 0, 0);"/>
    <path d="M 175.5 78 C 181.724 77.945 185.78 80.337 188 84.5 C 189.786 87.221 190.702 90.506 190 95.5 C 189.041 99.412 186.757 101.761 183.5 104 L 180 105.5 L 180 111 L 174 111 L 174 99 C 174 99.071 178.5 99.192 178.5 99 C 179.411 99.304 183.788 96.073 183.748 94.5 C 184.129 90.357 183.714 87.524 182 86 C 180.417 84.833 177.583 84.5 173.5 85 C 170.583 86.417 169.417 89.083 170 93 L 164 93 L 164 88.5 C 164.495 82.408 168.5 81 168.5 81 C 168.768 79.901 175.659 77.346 175.5 78 Z" style="fill: rgb(0, 0, 0);"/>
    <path d="M 175.5 112 Q 180.25 111.25 181 114.5 Q 182 120 178.5 121 Q 173.75 121.75 173 118.5 Q 172 113 175.5 112 Z " style="fill: rgb(0, 0, 0);"/>
    <path d="M 107.5 165 C 107.5 165 118.214 164.292 123.5 165 C 127.267 165.504 131.027 166.455 134.5 168 C 137.325 170.116 138.83 170.266 140.226 171.703 C 140.525 173.431 141.066 175.31 141.61 177.099 C 142.051 178.549 143.348 181.26 143.348 181.26 C 136.236 175.284 131.208 172.437 122.1 171.424 C 118.862 171.064 112.357 171.544 108.485 172.181 C 106.439 172.297 96.553 175.981 97.296 176.457 C 96.812 175.92 88.502 181.445 88.794 184.632 C 88.554 191.343 88.034 201.881 88.034 201.881 L 85.466 201.825 C 83.257 201.757 83.365 201.878 80.911 201.638 L 80.967 190.362 C 81.236 190.362 80.461 186.991 82.218 180.738 C 83.194 178.073 87.718 174.238 87.718 174.238 C 93.496 170.016 99.278 166.778 107.5 165 Z" style="fill: rgb(0, 0, 0);"/>
    <path d="M 154.5 193 C 154.783 192.637 169.976 192.39 169.5 193 L 174.5 194 C 183.715 196.119 192.227 200.384 196.295 207.205 C 197.257 208.324 198.199 215.167 198.269 230.737 C 196.307 230.756 196.72 230.933 192.687 230.789 C 193.108 231.005 192.455 213.429 191.559 212.97 C 191.849 211.492 188.599 206.152 186.71 205.484 C 186.71 205.484 181.719 202.416 178.967 201.282 C 175.815 199.983 172.611 199.384 168.844 198.88 C 165.21 198.393 161.63 198.095 157.873 198.467 C 153.719 198.426 145.206 201.362 144 201.881 C 142.677 202.336 139.142 203.445 135.42 208.212 C 135.42 208.212 133.1 211.083 133.219 212.845 C 132.395 218.492 133 231 133 231 L 127.5 231 L 127 230.5 C 127 230.5 126.942 216.01 127.081 209.555 C 127.856 207.036 131.5 203 131.5 203 C 137.63 198.13 145.297 194.797 154.5 193 Z" style="fill: rgb(0, 0, 0);"/>
    <path fill="#ffffff" d="M 146.139 170.398 C 146.148 160.414 154.007 152.329 163.696 152.335 C 173.382 152.344 181.234 160.443 181.222 170.43 C 181.219 174.694 179.755 178.821 177.087 182.078 C 173.748 186.146 168.838 188.493 163.665 188.493 C 153.979 188.487 146.13 180.384 146.139 170.398 Z M 148.998 170.326 C 148.966 178.646 155.48 185.413 163.55 185.449 C 171.617 185.482 178.185 178.764 178.217 170.451 C 178.217 170.418 178.217 170.392 178.217 170.362 C 178.205 162.081 171.7 155.364 163.665 155.337 C 155.598 155.299 149.029 162.013 148.998 170.326 Z M 148.998 170.326" fill-opacity="1" fill-rule="nonzero" style="stroke: rgb(0, 0, 0); stroke-width: 2.11602px;"/>
    <path fill="#ffffff" d="M 95.565 142.169 C 95.574 132.185 103.433 124.1 113.122 124.106 C 122.808 124.115 130.66 132.214 130.648 142.201 C 130.645 146.465 129.181 150.592 126.513 153.849 C 123.174 157.917 118.264 160.264 113.091 160.264 C 103.405 160.258 95.556 152.155 95.565 142.169 Z M 98.424 142.097 C 98.392 150.417 104.906 157.184 112.976 157.22 C 121.043 157.253 127.611 150.535 127.643 142.222 C 127.643 142.189 127.643 142.163 127.643 142.133 C 127.631 133.852 121.126 127.135 113.091 127.108 C 105.024 127.07 98.455 133.784 98.424 142.097 Z M 98.424 142.097" fill-opacity="1" fill-rule="nonzero" style="stroke: rgb(0, 0, 0); stroke-width: 2.11602px;"/>
  </g>
</svg>