<?xml version="1.0" encoding="utf-8"?>
<svg viewBox="0 0 300 300" width="300" height="300" xmlns="http://www.w3.org/2000/svg">
  <g transform="matrix(1.225745, 0, 0, 1.42345, -34.562294, -63.568672)" style="">
    <path d="M 119.5 93 C 119.5 93 126.943 92.111 130.5 93 C 133.249 93.687 138 97 138 97 C 138 97 142.142 103.026 143 106.5 C 143.88 110.06 143 117.5 143 117.5 C 143 117.5 140.912 127.305 137.508 130.906 C 134.613 133.968 128.833 136.196 125.5 137 C 123.232 137.547 120.707 137.757 118.5 137 C 116.703 136.383 114 133.5 114 133.5 C 114 133.5 112.545 128.961 112.849 126.673 C 113.075 124.973 113.818 123.139 115 122 C 116.293 120.755 120 120 120 120 C 121.389 116.533 120.555 115.2 117.5 116 L 94 125 L 93 131 L 161.5 158 L 215.5 137 L 224.5 134 L 231.5 134 C 236.6 135.233 240.433 137.733 243 141.5 C 246.333 145.167 247.333 151.167 246 159.5 C 244.47 166.637 240.97 171.803 235.5 175 L 227.5 179 C 227.5 179 224.07 179.56 222.5 179 C 220.269 178.204 218.232 176.523 217 174.5 C 216.109 173.037 215.936 169.472 215.936 169.472 C 215.936 169.472 216.315 166.687 217 165.5 C 217.825 164.071 220.5 162 220.5 162 C 223.246 160.828 224.111 161.709 223 158.5 C 222.135 157.856 222.104 157.496 220.5 158.028 L 197 167.5 L 192 191.5 L 189.5 196 L 160.5 207 L 156.5 206 L 152.5 210 L 150.5 210 L 124.5 200 L 116 193.5 L 108.5 177 C 107 176.5 106.5 177 107 178.5 L 101.5 186 L 94.5 188 L 68.5 178 L 63 174.5 L 61 169 C 57.75 169.055 55.417 167.889 54 165.5 L 54 119.5 L 56.5 117 L 119.5 93 Z M 122 99 L 67 121 L 87 128 L 89 120 L 115 110 C 115 110 120.587 109.294 122.908 110.557 C 124.902 111.642 126.435 113.801 127 116 C 127.586 118.283 127.201 120.972 126 123 C 125.151 124.434 122 126 122 126 C 122 126 119.333 128.333 120 131 C 120 131 122.47 132.403 124.052 132.148 C 126.805 131.704 129.673 129.613 131.753 127.698 C 133.966 125.66 135.042 122.492 135.999 119.703 C 136.978 116.849 136.808 113.442 136.544 110.669 C 136.358 108.719 135 105 135 105 C 133.667 99.667 129.333 97.667 122 99 Z M 62 125 L 61 163 L 65 164 L 68 170 L 76 174 L 94 181 L 98 181 L 103 171 L 106 170 L 113 171 L 116 176 C 116.667 182 118.667 187 122 191 L 127 194 L 150 203 L 154 200 L 157 200 L 157 162 L 147 159 L 62 125 Z M 227 140 L 167 163 L 164 164 L 164 198 L 185 191 L 192 163 L 220 151 C 223.333 150.333 226 151 228 153 L 230 157 C 230.041 157 230.678 160.086 230.445 161.604 C 230.251 162.857 229.826 164.091 229 165 C 227.496 166.655 223 168 223 168 C 222.333 170.667 223 172.333 225 173 L 232.328 170.141 C 232.328 170.141 236.28 168.041 237.549 166.214 C 239.003 164.67 240.675 160.689 240.733 158.821 C 241.438 152.562 241.026 152.979 240.541 149.758 C 240.104 147.474 238.143 144.36 238.143 144.36 C 232.152 139.465 231.667 140 227 140 Z" style="fill: rgb(0, 0, 0);"/>
    <path d="M 71.5 137 L 89.5 143 L 95 146.5 L 97 150.5 L 97 169.5 L 96 172 L 91.5 173 L 75.5 167 L 70 163.5 L 68 159.5 L 68 140.5 L 69 138 L 71.5 137 Z M 77.564 143.627 L 70.644 151.456 L 69.829 157.151 L 81.262 145.335 L 77.564 143.627 Z M 85.049 146.43 L 71.232 159.737 L 74.691 162.142 L 88.689 148.385 C 86.421 147.307 86.382 147.034 85.049 146.43 Z M 91.125 150.335 L 78.186 163.422 L 81.976 164.985 L 94.112 152.337 L 91.125 150.335 Z" style="fill: rgb(0, 0, 0);"/>
    <path d="M 123.5 158 L 127.5 158 L 140.5 163 L 148 167.5 L 150 171.5 L 150 190.5 L 145.5 194 L 129.5 188 L 122 182.5 L 121 180.5 L 121 161.5 L 123.5 158 Z M 127 166 L 127 178 L 128 180 L 132 182 L 144 186 Q 145 176 143 171 L 131 166 L 127 166 Z " style="fill: rgb(0, 0, 0);"/>
  </g>
</svg>