<?xml version="1.0" encoding="utf-8"?>
<svg viewBox="0 0 300 300" width="300" height="300" xmlns="http://www.w3.org/2000/svg">
  <path d="M 148.957 26.65 L 279.733 156.582 L 258.334 180.279 L 245.653 168.838 L 244.859 270.169 L 164.015 270.169 L 164.015 190.904 L 161.639 188.45 L 137.861 188.45 L 135.485 190.904 L 135.485 270.169 L 54.641 270.169 L 54.641 169.658 L 42.75 180.279 L 38.55 176.439 L 32.456 170.258 L 19.767 156.582 L 148.957 26.65 Z M 149.752 41.361 L 76.833 113.27 L 32.221 157.437 L 37.658 162.853 L 42.421 167.347 L 149.752 59.337 L 259.125 165.568 L 265.466 157.398 L 149.752 41.361 Z M 149.752 74.048 L 84.759 137.786 L 64.152 159.033 L 64.152 260.364 L 125.974 260.364 L 125.974 178.644 L 173.526 178.644 L 173.526 260.364 L 233.763 260.364 L 235.348 258.729 L 235.348 159.033 L 149.752 74.048 Z" style="fill: rgb(0, 0, 0);"/>
</svg>