<?xml version="1.0" encoding="utf-8"?>
<svg viewBox="0 0 300 300" width="300" height="300" xmlns="http://www.w3.org/2000/svg">
  <g transform="matrix(1.398063, 0, 0, 1.634467, -64.753464, -91.45546)" style="">
    <path d="M 204.5 68.893 C 213.419 68.565 224.343 70.841 228.965 77.219 L 233.039 83.652 C 234.57 87.141 234.03 88.815 233.791 91.122 C 233.738 91.63 233.37 92.427 233.252 92.901 C 232.553 95.463 231.653 96.81 230.837 98.898 C 225.651 112.166 211.5 136 211.5 136 L 209.027 136.076 L 206.799 136.027 C 209.05 136.027 190.958 109.775 186 96.5 C 184.944 93.673 185 87.5 185 87.5 C 186.349 80.849 189.515 76.015 194.5 73 C 194.5 73 200.899 69.025 204.5 68.893 Z M 207 75 C 207 75 200.527 77.109 198 79.262 C 195.311 81.553 193.141 84.58 192.294 87.935 C 191.633 90.552 193 96 193 96 L 210 126 L 226 95 C 227.333 89.667 226.465 86.34 225 84 C 221.667 78 215.667 75 207 75 Z" style="fill: rgb(0, 0, 0);"/>
    <path d="M 204.629 81.229 C 213.004 79.854 218.042 81.459 220 86.5 C 221.021 92.521 220.148 95.962 216.794 98.262 C 214.572 100.373 210.611 100.778 205.5 100 C 205.5 100 200.402 96.968 199 94.5 C 197.998 92.737 198 88.5 198 88.5 C 198 88.5 199.047 85.097 200.567 83.544 C 201.408 82.685 204.629 81.229 204.629 81.229 Z M 208 87 C 205.333 87.667 204.333 89.333 205 92 C 204.531 92.667 208.039 94.96 208.213 94.713 C 208.213 94.713 211.898 94.793 212.924 93.638 C 213.73 92.731 214.786 91.732 213.73 89.065 C 213.063 87.065 210.667 86.333 208 87 Z" style="fill: rgb(0, 0, 0);"/>
    <path d="M 196.386 130.353 C 196.624 131.574 196.474 131.142 197 133.5 L 198 135.5 C 195.005 136.43 194.144 136.422 189.5 137 C 188.949 135.727 188.34 134 188 131 L 194.5 130.646 L 196.386 130.353 Z" style="fill: rgb(0, 0, 0);"/>
    <path d="M 178.607 132.047 C 180.75 131.708 182.337 131.542 183.044 131.825 C 183.468 132.799 183.68 133.451 184.107 135.547 L 185 138 L 176.5 139 C 176.215 137.613 175.288 136.02 175 133 L 178.607 132.047 Z" style="fill: rgb(0, 0, 0);"/>
    <path d="M 168.5 134 L 171 135.5 L 172 140 L 163 142 L 161 136 L 168.5 134 Z " style="fill: rgb(0, 0, 0);"/>
    <path d="M 156.5 138 L 160 144 L 152.5 147 L 149 142.5 L 156.5 138 Z " style="fill: rgb(0, 0, 0);"/>
    <path d="M 91.5 140 C 105.796 139.371 115.963 142.611 121 151.5 C 121.443 151.204 126.745 162.003 126 162.5 C 126.301 162.232 126.301 169.232 126 169.5 L 100.082 222.146 L 93.844 222.198 C 93.094 220.198 89.492 215 89.492 215 L 68 175.5 C 66.315 171.825 65.48 166.602 67 160.5 C 68.672 154.839 71.505 150.339 75.5 147 C 79.536 143.369 84.869 141.036 91.5 140 Z M 94 146 C 93.9 145.466 82.9 149.466 83 150 C 82.4 149.555 73.4 160.555 74 161 C 73.099 161 73.099 172 74 172 C 80.667 186.667 88.333 200.333 97 213 L 112 185 L 119 169 C 119.101 169 118.452 161 118 161 C 118.743 160.78 114.442 152.869 114 153 C 114.31 152.77 104.837 146.38 104 147 L 94 146 Z" style="fill: rgb(0, 0, 0);"/>
    <path d="M 145.5 146 L 151 149.5 Q 148 150.75 149 155 L 142 155 L 142 150.5 L 145.5 146 Z " style="fill: rgb(0, 0, 0);"/>
    <path d="M 102.733 155 C 105.586 155.829 109.031 160.462 108.871 161.386 C 108.927 161.386 110.144 164.757 110 166.5 C 110.284 168.722 108.353 172.274 108 172.5 C 107.986 172.846 105.843 175.153 105.5 175 C 101.492 177.643 98.287 178.278 92.371 177.314 C 92.371 177.314 85.755 174.605 84 171.5 C 82.515 168.872 82.12 165.387 83 162.5 C 83.827 159.785 86.15 157.591 88.5 156 C 90.246 154.818 98.293 153.295 102.733 155 Z M 96.766 160.314 C 94.751 159.973 91.57 161.157 90.871 162 C 89.37 163.81 88.936 166.072 89.614 168 C 90.311 169.982 92.726 171.624 94.485 172 C 96.446 172.436 99.123 172.443 100.508 171.181 C 101.8 170.501 102.831 169.583 103.257 168 C 103.712 166.733 102.708 164 102.708 164 C 102.061 161.288 99.044 160.283 96.766 160.314 Z" style="fill: rgb(0, 0, 0);"/>
    <path d="M 148.5 157 L 153 163.5 L 148.5 167 L 143 160.5 L 148.5 157 Z " style="fill: rgb(0, 0, 0);"/>
    <path d="M 156 164 L 164 166 L 163 172 L 154 170 L 156 164 Z " style="fill: rgb(0, 0, 0);"/>
    <path d="M 168 168 L 177 169 L 176 175 L 167 174 L 168 168 Z " style="fill: rgb(0, 0, 0);"/>
    <path d="M 181 171 L 188.5 172 L 190 173.5 L 189 178 L 180 177 L 181 171 Z " style="fill: rgb(0, 0, 0);"/>
    <path d="M 194 174 L 203 177 L 199.5 183 L 192 180 L 194 174 Z " style="fill: rgb(0, 0, 0);"/>
    <path d="M 207.5 180 L 213 184.5 L 214 186.5 L 208.5 190 L 203 184.5 L 207.5 180 Z " style="fill: rgb(0, 0, 0);"/>
    <path d="M 212.5 191 Q 216.25 190.25 217 192.5 L 217 199.5 L 215.5 200 L 210 199 L 209 192.5 L 212.5 191 Z " style="fill: rgb(0, 0, 0);"/>
    <path d="M 208.5 201 L 214 204.5 L 211.5 208 L 206.5 210 L 203 205.5 L 208.5 201 Z " style="fill: rgb(0, 0, 0);"/>
    <path d="M 197.5 207 L 201 208.5 L 202 213 L 193 215 L 192 209.5 L 197.5 207 Z " style="fill: rgb(0, 0, 0);"/>
    <path d="M 183.5 210 Q 189.35 207.917 188 212.5 L 189 216 L 180.5 217 Q 177.75 215.6 179 211 L 183.5 210 Z " style="fill: rgb(0, 0, 0);"/>
    <path d="M 166 212 L 175 212 L 175 215.5 Q 177.25 216.75 174.5 218 L 166 218 L 166 212 Z " style="fill: rgb(0, 0, 0);"/>
    <path d="M 113 213 L 122 213 L 122 219 L 113 219 L 113 213 Z " style="fill: rgb(0, 0, 0);"/>
    <path d="M 126 213 L 135 213 L 135 219 L 126 219 L 126 213 Z " style="fill: rgb(0, 0, 0);"/>
    <path d="M 139 213 L 149 213 L 149 219 L 139 219 L 139 213 Z " style="fill: rgb(0, 0, 0);"/>
    <path d="M 153 213 L 162 213 L 162 219 L 153 219 L 153 213 Z " style="fill: rgb(0, 0, 0);"/>
  </g>
</svg>