<?xml version="1.0" encoding="utf-8"?>
<svg viewBox="0 0 300 300" width="300" height="300" xmlns="http://www.w3.org/2000/svg">
  <g transform="matrix(1.158114, 0, 0, 1.026509, -22.454288, 4.258935)" style="">
    <path d="M 97.5 39 L 202.5 39 L 207 42.5 L 207 257.5 L 204.5 260 L 95.5 260 L 93 257.5 L 92 254.5 L 92 44.5 L 95.5 40 L 97.5 39 Z M 101 47 L 99 49 L 99 63 L 101 64 L 200 64 L 200 48 L 200 47 L 101 47 Z M 101 72 L 99 74 L 99 227 L 101 228 L 200 228 L 200 72 L 101 72 Z M 99 236 L 99 252 L 101 253 L 200 253 L 200 237 L 200 236 L 99 236 Z " style="fill: rgb(0, 0, 0);"/>
    <path d="M 137.5 52 L 162.5 52 L 165 54.5 L 164 59 L 161.5 60 L 138.5 60 L 136 59 L 135 54.5 L 137.5 52 Z " style="fill: rgb(0, 0, 0);"/>
    <path d="M 110.5 104 C 115.352 103.481 118.519 104.648 120 107.5 L 123.5 116 L 185 116 L 185 157.5 L 183.5 159 L 180.407 159.38 L 174.5 160 L 170.867 160.441 L 165.5 161 L 160.731 161.521 L 156.5 162 L 123 165 L 123 170.5 L 124.5 171 L 126.5 171 L 180.5 171 C 180.5 171 183.477 171.17 184.211 172.721 C 185.008 174.405 184.642 177.305 183.211 178.499 C 181.675 179.78 178 179 178 179 C 178 179 178.347 182.7 178 184.5 C 177.83 185.381 177.649 186.38 177 187 C 175.583 188.355 173.382 189.255 171.447 188.94 C 169.597 188.639 167.951 187.115 167 185.5 C 165.887 183.611 166.506 179.127 166.506 179.127 L 135.5 179 L 134.748 179.179 L 134.375 182.5 C 134.139 185.813 131.5 188 131.5 188 C 131.5 188 129.546 189.129 128.5 189 C 126.343 188.734 124.228 187.293 123 185.5 C 122.039 184.098 122.464 180.762 122.464 180.762 C 122.434 179.889 122.444 179.435 121.5 178 L 117.069 174.732 C 117.069 174.732 115.339 171.263 115 169.5 C 114.966 150.607 115 113.5 115 113.5 L 113.5 112 L 109 111 L 108 106.5 L 110.5 104 Z M 123 124 L 123 129 L 131 129 L 131 124 L 123 124 Z M 137 124 L 137 129 L 147 129 L 147 124 L 137 124 Z M 153 124 L 153 129 L 163 129 L 163 124 L 153 124 Z M 169 124 L 169 129 L 178 129 L 178 124 L 169 124 Z M 123 136 L 123 142 L 131 142 L 131 136 L 123 136 Z M 137 136 L 136.95 141.727 L 139 142 L 147 142 L 147 136 L 137 136 Z M 153 136 L 153 142 L 163 142 L 163 136 L 153 136 Z M 169 136 L 169 142 L 177 142 L 178 141 L 178 136 L 169 136 Z M 123 148 L 123 157 L 131 157 L 131 148 L 123 148 Z M 139.198 148.056 L 137 148.098 L 137 156 L 147 155 L 147 148 L 139.198 148.056 Z M 153 148 L 153 154 L 163 153 L 163 148 L 153 148 Z M 169 148 L 169 152 L 176 152 L 177.228 151.836 C 178.133 151.753 177.854 151.563 177.966 150.115 L 177.948 147.885 L 169 148 Z" style="fill: rgb(0, 0, 0);"/>
  </g>
</svg>