<?xml version="1.0" encoding="utf-8"?>
<svg viewBox="0 0 300 300" width="300" height="300" xmlns="http://www.w3.org/2000/svg">
  <g transform="matrix(1.53968, 0, 0, 1.349181, -81.966995, -51.455299)" style="">
    <path fill="#ffffff" d="M 152.597 77.517 C 152.607 66.216 161.538 57.064 172.547 57.071 C 183.553 57.081 192.474 66.25 192.461 77.554 C 192.458 82.38 190.794 87.052 187.761 90.739 C 183.968 95.343 178.39 98 172.511 98 C 161.505 97.993 152.587 88.821 152.597 77.517 Z M 155.845 77.436 C 155.809 86.853 163.211 94.514 172.381 94.554 C 181.547 94.591 189.01 86.988 189.046 77.577 C 189.046 77.54 189.046 77.51 189.046 77.477 C 189.033 68.103 181.641 60.5 172.511 60.47 C 163.345 60.426 155.881 68.026 155.845 77.436 Z M 155.845 77.436" fill-opacity="1" fill-rule="nonzero" style="stroke: rgb(0, 0, 0); stroke-width: 3px;"/>
    <path d="M 149.5 98 L 157.5 98 L 167 105.5 L 176 130.5 L 177.77 134.056 L 192.5 139 C 192.901 138.599 198.238 142.262 198 142.5 C 200.222 144.945 201.076 150.59 200 154.5 C 199.247 157.236 194.5 161 194.5 161 C 194.5 161 191.194 162.141 189.5 162 C 182.035 161.377 168.95 153.389 168.95 153.389 L 162.932 150.313 L 164.5 140 L 168.5 147 L 188.5 155 C 188.5 155 191.379 155.722 192.5 155 C 194.893 154.61 195.264 149.764 195 149.5 C 195.217 149.5 194.287 146.865 192.5 146 C 185.874 143.633 173 139 173 139 L 163 110.5 L 158.703 106.49 C 157.148 104.712 155.278 103.555 151.5 104 L 123 117 L 114 141.5 C 112.952 143.007 112.805 145.642 113.264 146.745 C 114.928 148.544 116.333 149.5 119.5 149 C 119.68 149.06 122.303 145.601 122 145.5 C 122.86 145.752 128.005 125.5 128 125.5 L 129.5 124 L 135.5 121 L 139.5 121 C 141.167 121.667 141.667 123.5 141 126.5 L 136 149.5 L 135 161.5 L 164 186.5 L 165 188.5 L 165 230.5 C 164.817 230.604 166.193 232.176 166.5 232 C 169.5 232.667 171.572 232.22 172.239 230.553 C 172.597 229.91 172.934 228.49 172.861 228.472 L 173 183.5 L 167.5 177 L 153 164.5 L 159 127.5 L 160.5 126 C 163 125.5 164.5 126 165 127.5 L 159 163 L 174.599 177.4 L 177.6 180.6 C 177.6 180.6 178.394 215.662 178 231.5 C 177.392 233.586 174.882 237.191 174.5 237 C 174.5 237 171.133 239.544 167.118 239.302 C 165.2 238.841 164.04 238.841 161.15 236.257 C 160.265 235.131 158.799 233.539 158.465 231.69 C 158.148 217.958 159 189 159 189 L 133 169 C 129.9 165.617 128.9 159.783 130 151.5 L 134 129.5 L 133 129.5 L 127.066 147.23 C 126.026 150.474 120.866 155.622 121.934 154.479 C 122.036 154.65 118.001 156.644 116.5 156 C 116.056 156.239 110.759 153.534 109.522 151.543 C 108.623 150.194 106.655 145.15 108 141.5 L 117 116.5 L 122.5 110 L 149.5 98 Z" style="fill: rgb(0, 0, 0);"/>
    <path d="M 128.5 165 L 133 171.5 L 129 192.5 L 105.188 225.828 C 104.573 226.93 103.965 229.323 105.012 231.053 C 106.711 232.204 107.5 232.667 110.5 232 L 135 198.5 L 137 194.5 C 139.559 186.675 139.257 180.754 140.5 176 L 145 181.5 L 142 197.5 L 140 201.5 L 114.207 236.488 C 111.196 238.377 110.471 238.579 107.068 238.663 C 105.852 238.693 100.22 236.256 100 233.5 C 99.707 233.5 98.383 230.852 98.46 229.41 C 98.265 228.054 98.765 225.312 98.765 225.312 L 99.741 222.531 L 101 220.5 L 124 188.5 L 128.5 165 Z" style="fill: rgb(0, 0, 0);"/>
  </g>
</svg>