<?xml version="1.0" encoding="utf-8"?>
<svg viewBox="0 0 300 300" width="300" height="300" xmlns="http://www.w3.org/2000/svg">
  <g transform="matrix(1.616459, 0, 0, 1.523842, -92.458694, -64.041634)" style="">
    <path d="M 208.549 65.368 C 209.402 64.975 209.511 64.886 209.941 64.765 C 210.082 65.16 210.671 66.421 211 67.5 L 219 89.5 L 177 110 L 168 85.5 L 208.549 65.368 Z M 207 73 L 176 89 L 180 101 C 191.099 96.261 201.704 90.887 212 86 L 207 73 Z" style="fill: rgb(0, 0, 0);"/>
    <path d="M 83 111 L 173.5 111 C 173.718 110.723 175.255 112.093 174.889 112.559 L 175 136 L 215.5 136 C 216.032 136.487 216.111 137.152 216 138.5 L 216 215.5 L 216.057 216.435 L 215.992 217.739 L 83 218 L 83 111 Z M 89 118 L 89 136 L 125 136 L 125 118 L 89 118 Z M 131 118 L 131 136 L 169 136 L 169 118 L 131 118 Z M 89 143 L 89 161 L 103 161 L 103 143 L 89 143 Z M 109 143 L 109 161 L 147 161 L 147 143 L 109 143 Z M 153 143 L 153 161 L 191 161 L 191 143 L 153 143 Z M 198 143 L 195.914 143.137 L 196 161 L 211 161 L 211 143 L 198 143 Z M 89 168 L 89 186 L 125 186 L 125 168 L 89 168 Z M 131 168 L 131 186 L 169 186 L 169 168 L 131 168 Z M 175 168 L 175 186 L 211 186 L 211 168 L 175 168 Z M 89 193 L 89 211 L 103 211 L 103 193 L 89 193 Z M 109 193 L 109 211 L 147 211 L 147 193 L 109 193 Z M 153 193 L 153 211 L 191 211 L 191 193 L 153 193 Z M 196 193 L 196 211 L 211 211 L 211 193 L 196 193 Z" style="fill: rgb(0, 0, 0);"/>
  </g>
</svg>