<?xml version="1.0" encoding="utf-8"?>
<svg viewBox="0 0 300 300" width="300" height="300" xmlns="http://www.w3.org/2000/svg">
  <g transform="matrix(0.886479, 0, 0, 0.864259, 11.943331, 14.130496)" style="">
    <path d="M 216.346 62.526 C 218.561 61.789 221.324 62.946 223.432 64 C 227.438 66.003 233 73.5 233 73.5 C 233 73.5 234 75.446 234 76.5 C 234 77.554 233.732 78.573 233 79.5 C 213.048 99.356 162.5 150 162.5 150 L 138.5 158 L 138 155.5 L 146 132.5 L 153.5 125 L 156.346 122.526 C 156.346 122.526 198.589 80.767 216.346 62.526 Z M 219 71 L 214 76 L 220.504 83.434 L 223.712 80.365 L 226.236 77.932 L 219 71 Z M 209 81 L 160 130 C 160 130 161.377 130.633 161.946 131.099 C 163.249 132.166 165 135 165 135 L 165.446 136.209 L 195 108 L 215 88 L 209 81 Z M 154 136 L 150 143 L 151 146 L 158 144 C 160 144 160.667 142.667 160 140 C 159.333 136.667 157.333 135.333 154 136 Z" style="stroke: rgb(0, 0, 0); fill: rgb(0, 0, 0); stroke-width: 0px;"/>
    <path d="M 71.5 72 C 75.106 71.444 78.963 71.744 82.393 73.083 C 84.671 73.973 88.324 77.463 88.324 77.463 C 91.533 80.991 93.37 87.832 93 95 L 176.5 95 L 177 96.5 L 171.5 102 L 94.5 102 L 93 103.5 C 93 103.5 93.91 178.844 93 216.5 C 92.892 220.963 90 223 90 223 L 234.5 223 L 236 221.5 L 236 103.5 L 234.5 102 L 218.5 102 L 217.186 101.954 L 216.441 101.938 L 223.5 95 L 243 95 L 243 230 L 70.5 230 C 66 228.5 62.5 226 60 222.5 C 60 222.5 56.998 216.621 57 213.5 C 57.032 171.833 57.325 129.91 57 88.5 C 57.337 86.097 57.857 83.641 59 81.5 C 60.336 78.996 62.218 76.687 64.5 75 C 66.541 73.491 68.991 72.387 71.5 72 Z M 74 79 L 71 80 C 71 80 65.295 83.725 65.155 86.681 C 63.218 127.532 66 198 66 198 L 72 195 C 77.272 194.209 77.996 194.44 81.391 195.756 C 83.453 197.089 85.333 198.333 86 197 C 86 197 86.927 125.533 86.13 89.813 C 86.084 87.754 84 84 84 84 C 81.69 80.794 78.76 79.668 74 79 Z M 74.91 202.373 C 74.91 202.373 70.387 203.744 68.847 205 C 67.431 206.155 65.786 207.908 65.667 210.373 C 65.548 212.853 65.667 215.062 66.728 217.813 C 67.704 220.344 73 223 73 223 C 77 223.667 79.451 223.442 81.451 221.442 L 82.188 220.75 L 83.959 218.455 C 83.959 218.455 85.003 216.8 85.13 216.501 C 86.557 213.143 86.268 211.268 85.303 208.876 C 84.724 207.44 82.636 205 82.636 205 C 82.636 205 78.91 202.373 74.91 202.373 Z" style="stroke: rgb(0, 0, 0); fill: rgb(0, 0, 0);"/>
    <path d="M 111 123 L 148.5 123 L 149 125 L 142.5 130 L 119 130 L 119 151 L 134.5 151 L 135 152.5 L 133 158 L 119 158 L 119 172 L 126 172 L 126 179 L 119 179 L 119 197 L 146 197 L 146 179 L 135 179 L 135 172 L 154 172 L 154 196.5 L 157.5 197 Q 160.25 198.25 159 203.5 L 157.5 205 L 112.5 205 L 111 203.5 L 111 123 Z " style="stroke: rgb(0, 0, 0); fill: rgb(0, 0, 0);"/>
    <path d="M 195.5 123 L 216.5 123 L 217 123.5 L 217 205 L 170.5 205 L 170 204.5 C 170 204.5 168.99 199.482 170.668 197.628 C 171.792 196.386 175 196.5 175 196.5 L 175 172 L 194 172 L 194 179 L 182 179 L 182 197 L 210 197 L 210 179 L 203 179 L 203 172 C 206.671 171.73 207.428 171.57 210 171.347 L 210 158 L 172.5 158 L 172 157.5 L 172 151 L 210 151 L 210 131.5 L 208.5 130 L 189 129.5 L 195.5 123 Z" style="stroke: rgb(0, 0, 0); fill: rgb(0, 0, 0);"/>
  </g>
</svg>